<?xml version="1.0" encoding="utf-8"?>
<!-- Generator: Adobe Illustrator 17.0.2, SVG Export Plug-In . SVG Version: 6.00 Build 0)  -->
<!DOCTYPE svg PUBLIC "-//W3C//DTD SVG 1.1//EN" "http://www.w3.org/Graphics/SVG/1.1/DTD/svg11.dtd">
<svg version="1.1" id="musicfeed_x5F_logo" xmlns="http://www.w3.org/2000/svg" xmlns:xlink="http://www.w3.org/1999/xlink" x="0px"
	 y="0px" width="1024px" height="1024px" viewBox="0 0 1024 1024" enable-background="new 0 0 1024 1024" xml:space="preserve">
<path id="superellipse" fill="#FFFFFF" d="M352.204,0h319.591c101.416,0,152.123,0,206.708,17.26
	c59.598,21.692,106.545,68.639,128.237,128.237C1024,200.081,1024,250.789,1024,352.204v319.591c0,101.416,0,152.123-17.26,206.708
	c-21.692,59.598-68.639,106.545-128.237,128.237C823.919,1024,773.211,1024,671.796,1024H352.204
	c-101.416,0-152.124,0-206.708-17.26C85.899,985.049,38.951,938.101,17.26,878.504C0,823.919,0,773.211,0,671.796V352.204
	c0-101.416,0-152.124,17.26-206.708C38.951,85.899,85.899,38.951,145.496,17.26C200.081,0,250.789,0,352.204,0L352.204,0"/>
<path id="logo_x5F_symbol" fill="#00CC80" d="M959.379,512c0,247.08-200.298,447.379-447.379,447.379S64.621,759.08,64.621,512
	S264.92,64.621,512,64.621S959.379,264.92,959.379,512z M512,104.388c-225.118,0-407.612,182.494-407.612,407.612
	S286.882,919.612,512,919.612S919.612,737.118,919.612,512S737.118,104.388,512,104.388z M301.958,722.042V301.958L512,512
	L301.958,722.042z M722.042,722.042V301.958L512,512L722.042,722.042z"/>
</svg>
